<?xml version="1.0" encoding="UTF-8" standalone="no"?>
<!-- Created with Inkscape (http://www.inkscape.org/) -->

<svg
   width="182.35457mm"
   height="87.833359mm"
   viewBox="0 0 182.35457 87.833359"
   version="1.1"
   id="svg1"
   xml:space="preserve"
   xmlns="http://www.w3.org/2000/svg"
   xmlns:svg="http://www.w3.org/2000/svg"><defs
     id="defs1" /><g
     id="layer1"
     transform="translate(-13.822706,-7.5541419)"><a
       id="a3"
       style="fill:#0000c7;fill-opacity:1"
       transform="matrix(2.258133,0,0,2.258133,-132.10397,-150.42004)"><path
         style="fill:#0000c7;fill-opacity:1;stroke-width:0.264583"
         d="m 99.831607,76.858611 v 0 l -4.835475,4.517353 c 0,0 -3.372106,-5.217224 -11.388817,-4.835477 -8.016708,0.381748 -12.279564,7.06234 -12.406812,12.08869 -0.127249,5.026348 2.099612,10.052701 6.553342,12.279563 1.97628,0.98814 4.712283,2.15033 7.436044,1.42061 5.854199,-1.5684 6.979459,-3.593534 10.718479,-7.835126 3.766156,-4.272376 12.682232,-14.660392 18.098892,-20.00388 3.92422,-3.871218 9.17433,-4.809698 14.0737,-4.2487 8.33484,0.954372 13.36119,6.871467 14.57005,9.161954 1.20887,2.290488 4.26286,7.189589 1.78149,16.415168 -2.48136,9.225574 -10.65007,12.910204 -14.43385,13.012104 -2.5156,0.0677 -18.20561,-0.0327 -18.20561,-0.0327 V 94.228149 c 0,0 0.12725,-2.608618 2.79949,-2.672238 2.67224,-0.06363 3.62661,0 3.62661,0 l -0.0636,10.816199 8.90746,-0.0636 c 0,0 6.99871,0.12724 10.62532,-7.380466 3.6266,-7.507713 -1.90874,-13.806556 -1.90874,-13.806556 -2.00976,-2.575716 -5.88192,-4.874156 -10.30198,-4.719921 -2.04851,0.07148 -4.2147,0.851561 -6.36772,2.047682 -1.71786,0.954366 -3.51337,3.039969 -3.51337,3.039969 0,0 -10.20687,11.725999 -15.89215,18.0198 -5.495112,6.083272 -7.210884,7.245512 -10.80856,8.540902 -3.559676,1.2817 -9.424088,1.19367 -14.195939,-1.47856 C 69.92801,103.8991 64.201789,97.409383 64.647162,89.329049 65.092535,81.248715 69.291763,75.649743 74.890735,72.34126 c 5.598972,-3.308484 12.840306,-2.375113 14.82455,-1.845116 2.604133,0.695571 6.935092,2.735859 8.97108,5.02635 0.631213,0.710116 0.980022,1.088162 1.1676,1.295013 0.01722,0.01899 -0.02237,0.0411 -0.02237,0.0411 z"
         id="path3" /></a></g></svg>
